<svg width="414.27mm" height="414.27mm" version="1.1" viewBox="0 0 414.27 414.27" xmlns="http://www.w3.org/2000/svg">
 <defs>
  <filter id="filter11961" x="-.065821" y="-.30067" width="1.1316" height="1.6013" color-interpolation-filters="sRGB">
   <feGaussianBlur stdDeviation="4.2119557"/>
  </filter>
 </defs>
 <g id="trophy">
  <path id="path73474" d="m192.93 167.13c-2.66 0-5.37-0.306-7.63 1.12-1.13 0.713-1.75 1.92-1.98 2.97-0.23 1.06-0.209 2.05-0.209 3.02 0 1.92-0.015 4.31 0.756 6.88s2.23 5.1 4.08 7.06 4.08 3.25 6.48 3.88c2.4 0.632 4.82 0.609 7.08 0.609 0.485 0 0.951-0.193 1.294-0.536s0.536-0.809 0.536-1.294-0.193-0.951-0.536-1.294-0.809-0.536-1.294-0.536c-2.27 0-4.38-0.023-6.15-0.488s-3.34-1.37-4.75-2.85c-1.41-1.49-2.65-3.65-3.24-5.6-0.585-1.95-0.6-3.9-0.6-5.82 0-0.961 0.02-1.76 0.123-2.24 0.103-0.472 0.152-0.525 0.352-0.65 0.399-0.251 3.02-0.557 5.68-0.557 0.485 0 0.951-0.193 1.294-0.536s0.536-0.809 0.536-1.294c0-1.011-0.819-1.83-1.83-1.83z" color="#000000" fill="#ffb83a" style="-inkscape-stroke:none"/>
  <path id="path73476" d="m222.13 167.13c2.66 0 5.37-0.306 7.63 1.12 1.13 0.713 1.75 1.92 1.98 2.97 0.23 1.06 0.209 2.05 0.209 3.02 0 1.92 0.015 4.31-0.756 6.88s-2.23 5.1-4.08 7.06-4.08 3.25-6.48 3.88c-2.4 0.632-4.82 0.609-7.08 0.609-0.485 0-0.951-0.193-1.294-0.536s-0.536-0.809-0.536-1.294 0.193-0.951 0.536-1.294 0.809-0.536 1.294-0.536c2.27 0 4.38-0.023 6.15-0.488s3.34-1.37 4.75-2.85c1.41-1.49 2.65-3.65 3.24-5.6 0.585-1.95 0.6-3.9 0.6-5.82 0-0.961-0.02-1.76-0.123-2.24-0.103-0.472-0.152-0.525-0.352-0.65-0.399-0.251-3.02-0.557-5.68-0.557-0.485 0-0.951-0.193-1.294-0.536s-0.536-0.809-0.536-1.294 0.193-0.951 0.536-1.294 0.809-0.536 1.294-0.536z" color="#000000" fill="#ffb83a" style="-inkscape-stroke:none"/>
  <path id="path73478" d="m203.03 196.13c0.987 1.71 2.02 3.12 2.02 6.7v6.21h4.52v-6.21c0-3.57 1.03-4.99 2.02-6.7z" fill="#fdb83c" stop-color="#000000" stroke-linecap="round" stroke-width="2.31"/>
  <path id="path73480" d="m191.43 160.13v22.9c0 8.9 7.17 16.1 16.1 16.1 8.9 0 16.1-7.17 16.1-16.1v-22.9h-16.1z" fill="#fed44e" stop-color="#000000" stroke-width=".28"/>
  <path id="path73486" d="m205.03 207.13v2.41h4.52v-2.41z" fill="#f29d1f" stop-color="#000000"/>
  <path d="m196.53 208.13h21.6v4.74h-21.6z" fill="#ffb83a" stop-color="#000000"/>
  <g fill="#fafafa">
   <path id="path73492" d="m207.54 174c0.432 0 2.105 3.296 2.453 3.551 0.349 0.254 4.001 0.828 4.134 1.237 0.133 0.411-2.484 3.02-2.617 3.434-0.133 0.411 0.451 4.062 0.102 4.318-0.349 0.254-3.644-1.431-4.073-1.431-0.432 0-3.725 1.686-4.073 1.431-0.349-0.254 0.235-3.904 0.101-4.318-0.133-0.414-2.754-3.02-2.616-3.434 0.134-0.411 3.787-0.981 4.134-1.237 0.349-0.254 2.024-3.551 2.453-3.551z" stop-color="#000000" stroke="#fafafa" stroke-linecap="round" stroke-linejoin="round" stroke-width=".77161" style="paint-order:markers stroke fill"/>
   <path id="path73494" d="m213.13 172.13c0 0.203-0.163 0.366-0.366 0.366-0.436 0.025-0.715-0.186-0.715 0.296s0.352 0.296 0.715 0.296c0.203 0 0.366 0.163 0.366 0.366 0.025 0.436-0.167 0.715 0.296 0.715s0.296-0.352 0.296-0.715c0-0.203 0.163-0.366 0.366-0.366 0.436-0.025 0.715 0.18 0.715-0.296 0-0.475-0.352-0.296-0.715-0.296-0.203 0-0.366-0.163-0.366-0.366-0.025-0.436 0.178-0.715-0.296-0.715s-0.296 0.352-0.296 0.715z" stop-color="#000000" style="paint-order:markers stroke fill"/>
   <path id="path73496" d="m216.13 167.13c0 0.573-0.461 1.03-1.03 1.03-1.23 0.071-2.02-0.527-2.02 0.836s0.994 0.836 2.02 0.836c0.573 0 1.03 0.461 1.03 1.03 0.071 1.23-0.471 2.02 0.836 2.02 1.31 0 0.836-0.994 0.836-2.02 0-0.573 0.461-1.03 1.03-1.03 1.23-0.071 2.02 0.508 2.02-0.836 0-1.34-0.994-0.836-2.02-0.836-0.572 0-1.03-0.461-1.03-1.03-0.071-1.23 0.504-2.02-0.836-2.02s-0.836 0.994-0.836 2.02z" stop-color="#000000" style="paint-order:markers stroke fill"/>
   <g fill-opacity=".587">
    <path id="path17" d="m214.14 164.3-9.176 34.631c0.835 0.133 1.692 0.203 2.566 0.203 0.813 0 1.612-0.061 2.393-0.176l9.183-34.658z" stroke-width="1.4143" style="mix-blend-mode:soft-light;paint-order:markers stroke fill"/>
    <path id="path19" d="m203.81 164.28-7.889 29.921c2.059 2.141 4.707 3.711 7.692 4.453l9.062-34.374h-6.297z" stroke-width="1.4115" style="mix-blend-mode:soft-light;paint-order:markers stroke fill"/>
    <path id="path21" d="m200.98 164.29-7.221 27.112c0.316 0.52 0.661 1.02 1.032 1.499l7.621-28.612z" stroke-width="1.4184" style="mix-blend-mode:soft-light;paint-order:markers stroke fill"/>
   </g>
  </g>
  <path d="m191.43 160.13h32.1v4.25h-32.1z" fill="#fec652" stop-color="#000000" style="paint-order:markers stroke fill"/>
  <g fill="#fafafa" fill-opacity=".587" stroke-width=".3686">
   <path id="path29" d="m215.31 160.13-1.132 4.25h4.905l1.132-4.25z" style="mix-blend-mode:soft-light;paint-order:markers stroke fill"/>
   <path id="path31" d="m204.98 160.13-1.132 4.25h8.796l1.132-4.25z" style="mix-blend-mode:soft-light;paint-order:markers stroke fill"/>
   <path id="path33" d="m202.11 160.13-1.132 4.25h1.405l1.133-4.25z" style="mix-blend-mode:soft-light;paint-order:markers stroke fill"/>
  </g>
  <path d="m190.97 157.13h33.02c1.352 0 2.44 1.088 2.44 2.44s-1.088 2.44-2.44 2.44h-33.02c-1.352 0-2.44-1.088-2.44-2.44s1.088-2.44 2.44-2.44z" fill="#ffd550" stop-color="#000000" stroke-width=".407"/>
  <g fill="#fafafa">
   <path id="path73498" d="m194.33 161.13c0 0.284-0.229 0.513-0.513 0.513-0.612 0.035-1-0.261-1 0.415s0.493 0.415 1 0.415c0.284 0 0.513 0.229 0.513 0.513 0.035 0.612-0.234 1 0.415 1s0.415-0.493 0.415-1c0-0.284 0.229-0.513 0.513-0.513 0.612-0.035 1 0.252 1-0.415s-0.493-0.415-1-0.415c-0.284 0-0.513-0.229-0.513-0.513-0.035-0.612 0.25-1-0.415-1s-0.415 0.493-0.415 1z" stop-color="#000000" style="paint-order:markers stroke fill"/>
   <g fill-opacity=".587" stroke-width=".3686">
    <path id="path40" d="m217.74 157.13-1.3 4.88h4.905l1.3-4.88z" style="mix-blend-mode:soft-light;paint-order:markers stroke fill"/>
    <path id="path42" d="m207.41 157.13-1.3 4.88h8.796l1.3-4.88z" style="mix-blend-mode:soft-light;paint-order:markers stroke fill"/>
    <path id="path44" d="m204.54 157.13-1.3 4.88h1.406l1.3-4.88z" style="mix-blend-mode:soft-light;paint-order:markers stroke fill"/>
   </g>
  </g>
  <path d="m212.13 208.13h1.23v3.44h-1.23z" fill="#fff" stop-color="#000000" stroke-width=".88021" style="mix-blend-mode:soft-light;paint-order:markers stroke fill"/>
  <path d="m214.13 208.13h3.19v3.44h-3.19z" fill="#fff" stop-color="#000000" stroke-width=".88021" style="mix-blend-mode:soft-light;paint-order:markers stroke fill"/>
  <path d="m192.33 210.13h29.8v4.74h-29.8z" fill="#fdd34e" stop-color="#000000"/>
  <path d="m213.17 210.13h1.697v5.067h-1.697z" fill="#fff" stop-color="#000000" stroke-width="1.255" style="mix-blend-mode:soft-light;paint-order:markers stroke fill"/>
  <path d="m215.93 210.13h4.402v5.067h-4.402z" fill="#fff" stop-color="#000000" stroke-width="1.255" style="mix-blend-mode:soft-light;paint-order:markers stroke fill"/>
 </g>
 <g id="crown">
  <g id="crown_left">
   <path id="path13717" d="m183.09 197.43c-1.865 3.702-2.013 7.971-0.405 11.7 1.654 3.73 4.912 6.527 8.92 7.66z" fill="#3a9104" stop-color="#000000"/>
   <path id="path13719" d="m183.09 197.43c4.008 1.133 7.266 3.93 8.92 7.66 1.608 3.729 1.46 7.998-0.405 11.7z" fill="#9bdb4d" stop-color="#000000"/>
   <path id="path13729" d="m173.69 189.43c-2.187 2.602-3.09 5.976-2.47 9.23 0.607 3.258 2.676 6.072 5.66 7.7z" fill="#3a9104" stop-color="#000000"/>
   <path id="path13731" d="m173.69 189.43c2.984 1.628 5.053 4.442 5.66 7.7 0.62 3.254-0.283 6.628-2.47 9.23z" fill="#9bdb4d" stop-color="#000000"/>
   <path id="path13741" d="m167.79 178.43c-2.7 1.545-4.549 4.161-5.06 7.16-0.506 3.001 0.378 6.082 2.42 8.43z" fill="#3a9104" stop-color="#000000"/>
   <path id="path13743" d="m167.79 178.43c2.042 2.348 2.926 5.429 2.42 8.43-0.511 2.999-2.36 5.615-5.06 7.16z" fill="#9bdb4d" stop-color="#000000"/>
   <path id="path13747" d="m158.69 167.43c-1.525 1.902-2.121 4.339-1.63 6.67 0.492 2.328 2.019 4.316 4.18 5.44z" fill="#68b723" stop-color="#000000"/>
   <path id="path13749" d="m158.69 167.43c2.161 1.124 3.688 3.112 4.18 5.44 0.491 2.331-0.105 4.768-1.63 6.67z" fill="#9bdb4d" stop-color="#000000"/>
   <path id="path13711" d="m171.19 211.43c1.725 3.791 4.983 6.588 8.92 7.66 3.959 1.056 8.198 0.263 11.6-2.17z" fill="#68b723" stop-color="#000000"/>
   <path id="path13713" d="m171.19 211.43c3.402-2.433 7.641-3.226 11.6-2.17 3.937 1.072 7.195 3.869 8.92 7.66z" fill="#9bdb4d" stop-color="#000000"/>
   <path id="path13723" d="m162.37 197.07c0.392 3.376 2.227 6.348 5.02 8.13 2.788 1.793 6.258 2.217 9.49 1.16z" fill="#68b723" stop-color="#000000"/>
   <path id="path13725" d="m162.37 197.07c3.232-1.057 6.702-0.633 9.49 1.16 2.793 1.782 4.628 4.754 5.02 8.13z" fill="#9bdb4d" stop-color="#000000"/>
   <path id="path13735" d="m155.59 181.43c-0.73 3.022-0.097 6.16 1.73 8.59 1.836 2.425 4.683 3.894 7.79 4.02z" fill="#68b723" stop-color="#000000"/>
   <path id="path13737" d="m155.59 181.43c3.107 0.126 5.954 1.595 7.79 4.02 1.827 2.43 2.46 5.568 1.73 8.59z" fill="#9bdb4d" stop-color="#000000"/>
  </g>
  <g id="crown_right">
   <path id="path73030" d="m231.03 197.13c1.865 3.702 2.013 7.971 0.405 11.7-1.654 3.73-4.912 6.527-8.92 7.66z" fill="#3a9104" stop-color="#000000"/>
   <path id="path73032" d="m231.03 197.13c-4.008 1.133-7.266 3.93-8.92 7.66-1.608 3.729-1.46 7.998 0.405 11.7z" fill="#9bdb4d" stop-color="#000000"/>
   <path id="path73034" d="m240.03 189.13c2.187 2.602 3.09 5.976 2.47 9.23-0.607 3.258-2.676 6.072-5.66 7.7z" fill="#3a9104" stop-color="#000000"/>
   <path id="path73036" d="m240.03 189.13c-2.984 1.628-5.053 4.442-5.66 7.7-0.62 3.254 0.283 6.628 2.47 9.23z" fill="#9bdb4d" stop-color="#000000"/>
   <path id="path73038" d="m246.03 178.13c2.7 1.545 4.549 4.161 5.06 7.16 0.506 3.001-0.378 6.082-2.42 8.43z" fill="#3a9104" stop-color="#000000"/>
   <path id="path73040" d="m246.03 178.13c-2.042 2.348-2.926 5.429-2.42 8.43 0.511 2.999 2.36 5.615 5.06 7.16z" fill="#9bdb4d" stop-color="#000000"/>
   <path id="path73042" d="m255.03 167.13c1.525 1.902 2.121 4.339 1.63 6.67-0.492 2.328-2.019 4.316-4.18 5.44z" fill="#68b723" stop-color="#000000"/>
   <path id="path73044" d="m255.03 167.13c-2.161 1.124-3.688 3.112-4.18 5.44-0.491 2.331 0.105 4.768 1.63 6.67z" fill="#9bdb4d" stop-color="#000000"/>
   <path id="path73046" d="m243.03 211.13c-1.725 3.791-4.983 6.588-8.92 7.66-3.959 1.056-8.198 0.263-11.6-2.17z" fill="#68b723" stop-color="#000000"/>
   <path id="path73048" d="m243.03 211.13c-3.402-2.433-7.641-3.226-11.6-2.17-3.937 1.072-7.195 3.869-8.92 7.66z" fill="#9bdb4d" stop-color="#000000"/>
   <path id="path73050" d="m251.35 196.77c-0.392 3.376-2.227 6.348-5.02 8.13-2.788 1.793-6.258 2.217-9.49 1.16z" fill="#68b723" stop-color="#000000"/>
   <path id="path73052" d="m251.35 196.77c-3.232-1.057-6.702-0.633-9.49 1.16-2.793 1.782-4.628 4.754-5.02 8.13z" fill="#9bdb4d" stop-color="#000000"/>
   <path id="path73054" d="m258.19 181.11c0.73 3.022 0.097 6.16-1.73 8.59-1.836 2.425-4.683 3.894-7.79 4.02z" fill="#68b723" stop-color="#000000"/>
   <path id="path73056" d="m258.19 181.11c-3.107 0.126-5.954 1.595-7.79 4.02-1.827 2.43-2.46 5.568-1.73 8.59z" fill="#9bdb4d" stop-color="#000000"/>
  </g>
 </g>
 <g id="banner_w_text">
  <g id="banner">
   <path id="banner shadow" d="m206.23 215.67c-33.821 0-57.546 0.555-57.546 0.555-1.086 0.025-1.954 0.913-1.953 1.999v4.683c-1.943 0.378-2.994 0.622-2.994 0.622-0.789 0.184-1.346 0.886-1.346 1.695v5.091c-2.024 0.459-3.839 0.955-5.408 1.433-4.236 1.29-6.729 2.49-6.729 2.49-1.111 0.497-0.896 1.733 0.137 2.01 2.248 0.643 4.147 1.039 6.115 2.794-2.912 2.579-4.501 5.703-5.921 8.68-0.407 0.85 0.38 1.782 1.286 1.525 0 0 2.376-0.679 6.539-1.488 4.162-0.813 10.08-1.741 17.065-2.213 0.603-0.04 1.06-0.562 1.019-1.166l-0.188-2.791c0.599-0.047 1.213-0.093 1.852-0.14 0.909-0.067 1.613-0.824 1.614-1.735v-1.407c9.633-0.013 24.264-0.03 46.457-0.03 22.347 0 37.018 0.017 46.603 0.031v1.406c1e-3 0.911 0.705 1.668 1.614 1.735 0.639 0.047 1.253 0.093 1.852 0.14l-0.188 2.791c-0.041 0.604 0.416 1.126 1.019 1.166 6.985 0.472 12.902 1.4 17.064 2.213 4.164 0.809 6.54 1.488 6.54 1.488 0.906 0.257 1.693-0.675 1.287-1.525-1.421-2.977-3.01-6.101-5.922-8.68 1.968-1.755 3.867-2.151 6.115-2.794 1.033-0.277 1.248-1.513 0.136-2.01 0 0-2.492-1.2-6.728-2.49-1.569-0.478-3.385-0.974-5.408-1.433v-5.091c0-0.809-0.558-1.511-1.346-1.695 0 0-1.106-0.257-3.14-0.65v-4.655c1e-3 -1.086-0.866-1.974-1.952-2 0 0-23.725-0.554-57.547-0.554z" color="#000000" filter="url(#filter11961)" opacity=".3" stroke-linecap="round" stroke-linejoin="round" stroke-width="3.7795" style="-inkscape-stroke:none;paint-order:markers stroke fill"/>
   <path id="path6331" d="m154.33 226.97c-7.104 0.477-13.113 1.897-17.346 3.186-4.236 1.29-6.728 2.49-6.728 2.49-1.112 0.497-0.897 1.733 0.136 2.009 2.248 0.644 4.148 1.04 6.115 2.795-2.912 2.579-4.501 5.704-5.921 8.68-0.407 0.851 0.38 1.783 1.287 1.525 0 0 2.375-0.679 6.539-1.488 4.162-0.812 10.079-1.74 17.064-2.213 0.603-0.04 1.06-0.562 1.019-1.166l-1-14.801c-0.041-0.602-0.563-1.058-1.166-1.017z" color="#000000" fill="#842dc5" stroke-linecap="round" stroke-linejoin="round" style="-inkscape-stroke:none;paint-order:markers stroke fill"/>
   <path id="path38266" d="m148.93 229.61-5.194 11.324c5.914-0.545 8.934 1.162 10.311 3.123 0.473-0.037 0.949-0.073 1.432-0.105 0.603-0.041 1.06-0.563 1.019-1.166l-0.762-11.283-0.13-0.818z" fill="#471e73" stroke-width="1.0016"/>
   <path id="path7174" d="m157.8 219.5c-8.823 1.219-14.057 2.438-14.057 2.438-0.788 0.183-1.346 0.886-1.346 1.695v15.779c0 1.048 0.92 1.858 1.959 1.726 0 0 5.044-0.638 13.809-1.281 0.909-0.066 1.613-0.823 1.614-1.734v-16.9c-1e-3 -1.056-0.933-1.867-1.979-1.723z" color="#000000" fill="#9134da" stroke-linecap="round" stroke-linejoin="round" style="-inkscape-stroke:none;paint-order:markers stroke fill"/>
   <path id="path36862" d="m159.77 225.66-11.27 10.957c4.951 0.449 8.934 0.839 9.573 3.25 0.029-2e-3 0.056-4e-3 0.084-7e-3 0.909-0.066 1.613-0.823 1.614-1.734z" fill="#471e73" style="-inkscape-stroke:none;paint-order:markers stroke fill"/>
   <path id="path10203" d="m258.28 226.97c7.104 0.477 13.113 1.897 17.346 3.186 4.236 1.29 6.728 2.49 6.728 2.49 1.112 0.497 0.897 1.733-0.136 2.009-2.248 0.644-4.148 1.04-6.115 2.795 2.912 2.579 4.501 5.704 5.921 8.68 0.407 0.851-0.38 1.783-1.287 1.525 0 0-2.375-0.679-6.539-1.488-4.162-0.812-10.079-1.74-17.064-2.213-0.603-0.04-1.06-0.562-1.019-1.166l1-14.801c0.041-0.602 0.563-1.058 1.166-1.017z" color="#000000" fill="#842dc5" stroke-linecap="round" stroke-linejoin="round" style="-inkscape-stroke:none;paint-order:markers stroke fill"/>
   <path id="path10205" d="m263.68 229.61 5.194 11.325c-5.914-0.546-8.934 1.161-10.311 3.122-0.472-0.037-0.949-0.072-1.431-0.105-0.604-0.04-1.061-0.562-1.02-1.165l0.762-11.283 0.13-0.818z" fill="#471e73" stroke-width=".265"/>
   <path id="path10207" d="m254.81 219.5c8.823 1.219 14.057 2.438 14.057 2.438 0.788 0.183 1.346 0.886 1.346 1.695v15.779c0 1.048-0.92 1.858-1.959 1.726 0 0-5.044-0.638-13.809-1.281-0.909-0.066-1.613-0.823-1.614-1.734v-16.9c1e-3 -1.056 0.933-1.867 1.979-1.723z" color="#000000" fill="#9134da" stroke-linecap="round" stroke-linejoin="round" style="-inkscape-stroke:none;paint-order:markers stroke fill"/>
   <path id="path10209" d="m252.83 225.65 11.27 10.957c-4.951 0.449-8.934 0.839-9.573 3.25-0.029-2e-3 -0.055-4e-3 -0.084-6e-3 -0.909-0.067-1.612-0.823-1.613-1.735z" fill="#471e73" stroke-width=".26458" style="-inkscape-stroke:none;paint-order:markers stroke fill"/>
   <path id="path9570" d="m206.23 214.08c-33.822 0-57.547 0.555-57.547 0.555-1.086 0.025-1.953 0.913-1.953 2v18.1c0 1.106 0.898 2.002 2.004 2 0 0 23.698-0.047 57.496-0.047s57.496 0.047 57.496 0.047c1.106 2e-3 2.004-0.894 2.004-2v-18.1c0-1.087-0.867-1.975-1.953-2 0 0-23.725-0.555-57.547-0.555z" color="#000000" fill="#a541f2" stroke-linecap="round" stroke-linejoin="round" style="-inkscape-stroke:none;paint-order:markers stroke fill"/>
  </g>
  <g id="text" stroke-linecap="round" stroke-linejoin="round" stroke-width=".265">
   <g fill="#452981">
    <path id="path2248" d="m169.15 229.8c-0.947 0-1.671-0.233-2.173-0.7-0.495-0.466-0.742-1.123-0.742-1.971v-2.396c0-0.848 0.247-1.505 0.742-1.971 0.502-0.467 1.226-0.7 2.173-0.7 0.367 0 0.717 0.049 1.049 0.148 0.333 0.099 0.626 0.255 0.88 0.467 0.255 0.205 0.456 0.473 0.604 0.805 0.149 0.325 0.223 0.718 0.223 1.177v0.106h-1.505v-0.106c0-0.219-0.039-0.406-0.117-0.562-0.07-0.155-0.169-0.279-0.297-0.371-0.127-0.099-0.272-0.169-0.434-0.212-0.163-0.049-0.329-0.074-0.498-0.074-0.446 0-0.778 0.106-0.997 0.318-0.212 0.212-0.318 0.502-0.318 0.869v2.608c0 0.367 0.106 0.657 0.318 0.869 0.219 0.212 0.551 0.318 0.997 0.318 0.169 0 0.335-0.021 0.498-0.064 0.162-0.042 0.307-0.109 0.434-0.201 0.128-0.099 0.227-0.226 0.297-0.382 0.078-0.155 0.117-0.346 0.117-0.572v-0.106h1.505v0.106c0 0.459-0.074 0.855-0.223 1.187-0.148 0.325-0.349 0.594-0.604 0.806-0.254 0.205-0.547 0.357-0.88 0.456-0.332 0.099-0.682 0.148-1.049 0.148z"/>
    <path id="path2250" d="m175.52 228.52c0.346 0 0.604-0.085 0.774-0.254 0.169-0.17 0.254-0.375 0.254-0.615v-1.569c0-0.24-0.085-0.445-0.254-0.615-0.17-0.169-0.428-0.254-0.774-0.254-0.36 0-0.625 0.088-0.795 0.265-0.163 0.169-0.244 0.371-0.244 0.604v1.569c0 0.233 0.081 0.438 0.244 0.615 0.17 0.169 0.435 0.254 0.795 0.254zm0 1.251c-0.403 0-0.756-0.053-1.06-0.159s-0.558-0.251-0.763-0.435c-0.198-0.184-0.346-0.399-0.445-0.646-0.099-0.255-0.149-0.527-0.149-0.817v-1.696c0-0.289 0.05-0.558 0.149-0.805 0.099-0.255 0.247-0.474 0.445-0.657 0.205-0.184 0.459-0.329 0.763-0.435s0.657-0.159 1.06-0.159 0.753 0.053 1.049 0.159c0.304 0.106 0.555 0.251 0.753 0.435 0.205 0.183 0.357 0.402 0.456 0.657 0.099 0.247 0.148 0.516 0.148 0.805v1.696c0 0.29-0.049 0.562-0.148 0.817-0.099 0.247-0.251 0.462-0.456 0.646-0.198 0.184-0.449 0.329-0.753 0.435-0.296 0.106-0.646 0.159-1.049 0.159z"/>
    <path id="path2252" d="m179.34 224.09h0.795l0.403 0.551c0.176-0.169 0.396-0.325 0.657-0.466 0.269-0.142 0.597-0.212 0.986-0.212 0.6 0 1.07 0.191 1.41 0.572 0.346 0.375 0.519 0.901 0.519 1.58v3.529h-1.378v-3.445c0-0.339-0.085-0.586-0.254-0.742-0.163-0.162-0.364-0.243-0.605-0.243-0.134 0-0.261 0.021-0.381 0.063-0.12 0.043-0.233 0.096-0.339 0.159-0.099 0.057-0.188 0.12-0.265 0.191-0.071 0.064-0.128 0.12-0.17 0.17v3.847h-1.378z"/>
    <path id="path2254" d="m190.37 229.3c0 0.36-0.06 0.675-0.18 0.943-0.113 0.276-0.276 0.502-0.488 0.679-0.205 0.184-0.456 0.318-0.752 0.403-0.29 0.091-0.608 0.137-0.954 0.137-0.707 0-1.269-0.159-1.686-0.477s-0.625-0.763-0.625-1.335v-0.043h1.378v0.032c0 0.064 0.014 0.127 0.042 0.191 0.036 0.071 0.089 0.134 0.159 0.191 0.071 0.056 0.163 0.102 0.276 0.138 0.12 0.035 0.268 0.053 0.445 0.053 0.36 0 0.618-0.085 0.774-0.255 0.155-0.169 0.233-0.388 0.233-0.657v-0.636c-0.057 0.049-0.131 0.106-0.223 0.17-0.084 0.056-0.19 0.113-0.318 0.169-0.12 0.05-0.258 0.092-0.413 0.127-0.155 0.036-0.329 0.053-0.519 0.053-0.269 0-0.523-0.038-0.764-0.116-0.24-0.085-0.452-0.212-0.636-0.382-0.176-0.169-0.318-0.381-0.424-0.636-0.099-0.254-0.148-0.555-0.148-0.901v-1.155c0-0.346 0.049-0.647 0.148-0.901 0.106-0.255 0.248-0.467 0.424-0.636 0.184-0.17 0.396-0.293 0.636-0.371 0.241-0.085 0.495-0.127 0.764-0.127 0.402 0 0.731 0.067 0.985 0.201 0.255 0.134 0.477 0.293 0.668 0.477l0.403-0.551h0.795zm-1.378-3.509c-0.141-0.141-0.307-0.272-0.498-0.392-0.191-0.127-0.421-0.191-0.689-0.191-0.106 0-0.212 0.022-0.318 0.064-0.106 0.035-0.202 0.092-0.286 0.17-0.078 0.07-0.145 0.162-0.202 0.275-0.049 0.106-0.074 0.233-0.074 0.382v0.943c0 0.149 0.025 0.279 0.074 0.392 0.057 0.106 0.124 0.198 0.202 0.276 0.084 0.071 0.18 0.127 0.286 0.17 0.106 0.035 0.212 0.053 0.318 0.053 0.268 0 0.498-0.06 0.689-0.181 0.191-0.127 0.357-0.261 0.498-0.402z"/>
    <path id="path2256" d="m192.02 224.09h0.795l0.403 0.551c0.134-0.155 0.314-0.307 0.54-0.456 0.234-0.148 0.534-0.222 0.901-0.222h0.287v1.325h-0.287c-0.296 0-0.544 0.039-0.742 0.116-0.19 0.078-0.364 0.209-0.519 0.393v3.847h-1.378z"/>
    <path id="path2258" d="m197.46 229.77c-0.247 0-0.484-0.035-0.71-0.106s-0.424-0.173-0.594-0.307c-0.169-0.142-0.307-0.315-0.413-0.52-0.099-0.205-0.149-0.445-0.149-0.721 0-0.572 0.184-1.014 0.552-1.325 0.374-0.318 0.939-0.477 1.696-0.477h1.144v-0.349c0-0.241-0.07-0.424-0.212-0.552-0.141-0.134-0.367-0.201-0.678-0.201-0.318 0-0.548 0.06-0.689 0.18-0.134 0.12-0.201 0.272-0.201 0.456h-1.347c0-0.276 0.043-0.526 0.128-0.753 0.091-0.233 0.229-0.431 0.413-0.593 0.191-0.17 0.424-0.301 0.7-0.392 0.282-0.099 0.614-0.149 0.996-0.149s0.714 0.05 0.996 0.149c0.283 0.091 0.52 0.222 0.711 0.392 0.19 0.169 0.332 0.371 0.424 0.604 0.091 0.233 0.137 0.488 0.137 0.763v3.774h-0.795l-0.402-0.541c-0.205 0.184-0.439 0.343-0.7 0.477-0.254 0.127-0.59 0.191-1.007 0.191zm0.286-1.251c0.269 0 0.502-0.042 0.7-0.127 0.198-0.092 0.378-0.23 0.54-0.413v-0.615h-1.144c-0.184 0-0.333 0.021-0.446 0.063-0.113 0.036-0.201 0.082-0.265 0.138-0.063 0.057-0.106 0.12-0.127 0.191-0.021 0.064-0.032 0.124-0.032 0.18 0 0.389 0.258 0.583 0.774 0.583z"/>
    <path id="path2260" d="m204.18 229.64c-0.41 0-0.749-0.06-1.018-0.18-0.261-0.12-0.47-0.279-0.625-0.477-0.148-0.198-0.251-0.421-0.307-0.668-0.057-0.254-0.085-0.516-0.085-0.784v-2.248h-0.816v-1.197h0.816v-1.156h1.378v1.156h1.261v1.197h-1.261v2.248c0 0.36 0.07 0.604 0.212 0.731 0.148 0.12 0.346 0.18 0.593 0.18h0.456v1.198z"/>
    <path id="path2262" d="m210.74 229.64h-0.795l-0.403-0.541c-0.176 0.163-0.396 0.315-0.657 0.456-0.261 0.142-0.583 0.212-0.965 0.212-0.6 0-1.07-0.187-1.409-0.562-0.333-0.374-0.499-0.897-0.499-1.568v-3.551h1.378v3.466c0 0.339 0.082 0.586 0.244 0.742 0.163 0.148 0.361 0.222 0.594 0.222 0.134 0 0.258-0.021 0.371-0.063 0.12-0.043 0.229-0.092 0.328-0.149 0.099-0.063 0.184-0.127 0.255-0.19 0.078-0.064 0.138-0.121 0.18-0.17v-3.858h1.378z"/>
    <path id="path2264" d="m212.4 222.17h1.378v7.473h-1.378z"/>
    <path id="path2266" d="m216.92 229.77c-0.247 0-0.484-0.035-0.71-0.106s-0.424-0.173-0.594-0.307c-0.169-0.142-0.307-0.315-0.413-0.52-0.099-0.205-0.149-0.445-0.149-0.721 0-0.572 0.184-1.014 0.552-1.325 0.374-0.318 0.939-0.477 1.696-0.477h1.144v-0.349c0-0.241-0.07-0.424-0.212-0.552-0.141-0.134-0.367-0.201-0.678-0.201-0.318 0-0.548 0.06-0.689 0.18-0.134 0.12-0.201 0.272-0.201 0.456h-1.347c0-0.276 0.043-0.526 0.128-0.753 0.091-0.233 0.229-0.431 0.413-0.593 0.191-0.17 0.424-0.301 0.7-0.392 0.282-0.099 0.614-0.149 0.996-0.149s0.714 0.05 0.996 0.149c0.283 0.091 0.52 0.222 0.711 0.392 0.19 0.169 0.332 0.371 0.424 0.604 0.091 0.233 0.137 0.488 0.137 0.763v3.774h-0.795l-0.402-0.541c-0.205 0.184-0.439 0.343-0.7 0.477-0.254 0.127-0.59 0.191-1.007 0.191zm0.286-1.251c0.269 0 0.502-0.042 0.7-0.127 0.198-0.092 0.378-0.23 0.54-0.413v-0.615h-1.144c-0.184 0-0.333 0.021-0.446 0.063-0.113 0.036-0.201 0.082-0.265 0.138-0.063 0.057-0.106 0.12-0.127 0.191-0.021 0.064-0.032 0.124-0.032 0.18 0 0.389 0.258 0.583 0.774 0.583z"/>
    <path id="path2268" d="m223.64 229.64c-0.41 0-0.749-0.06-1.018-0.18-0.261-0.12-0.47-0.279-0.625-0.477-0.148-0.198-0.251-0.421-0.307-0.668-0.057-0.254-0.085-0.516-0.085-0.784v-2.248h-0.816v-1.197h0.816v-1.156h1.378v1.156h1.261v1.197h-1.261v2.248c0 0.36 0.07 0.604 0.212 0.731 0.148 0.12 0.346 0.18 0.593 0.18h0.456v1.198z"/>
    <path id="path2270" d="m225.53 224.09h1.378v5.554h-1.378zm0-1.919h1.378v1.166h-1.378z"/>
    <path id="path2272" d="m230.73 228.52c0.346 0 0.604-0.085 0.774-0.254 0.169-0.17 0.254-0.375 0.254-0.615v-1.569c0-0.24-0.085-0.445-0.254-0.615-0.17-0.169-0.428-0.254-0.774-0.254-0.36 0-0.625 0.088-0.795 0.265-0.163 0.169-0.244 0.371-0.244 0.604v1.569c0 0.233 0.081 0.438 0.244 0.615 0.17 0.169 0.435 0.254 0.795 0.254zm0 1.251c-0.403 0-0.756-0.053-1.06-0.159s-0.558-0.251-0.763-0.435c-0.198-0.184-0.346-0.399-0.445-0.646-0.099-0.255-0.149-0.527-0.149-0.817v-1.696c0-0.289 0.05-0.558 0.149-0.805 0.099-0.255 0.247-0.474 0.445-0.657 0.205-0.184 0.459-0.329 0.763-0.435s0.657-0.159 1.06-0.159 0.753 0.053 1.049 0.159c0.304 0.106 0.555 0.251 0.753 0.435 0.205 0.183 0.357 0.402 0.456 0.657 0.099 0.247 0.148 0.516 0.148 0.805v1.696c0 0.29-0.049 0.562-0.148 0.817-0.099 0.247-0.251 0.462-0.456 0.646-0.198 0.184-0.449 0.329-0.753 0.435-0.296 0.106-0.646 0.159-1.049 0.159z"/>
    <path id="path2274" d="m234.55 224.09h0.795l0.403 0.551c0.176-0.169 0.396-0.325 0.657-0.466 0.269-0.142 0.597-0.212 0.986-0.212 0.6 0 1.07 0.191 1.41 0.572 0.346 0.375 0.519 0.901 0.519 1.58v3.529h-1.378v-3.445c0-0.339-0.085-0.586-0.254-0.742-0.163-0.162-0.364-0.243-0.605-0.243-0.134 0-0.261 0.021-0.381 0.063-0.12 0.043-0.233 0.096-0.339 0.159-0.099 0.057-0.188 0.12-0.265 0.191-0.071 0.064-0.128 0.12-0.17 0.17v3.847h-1.378z"/>
    <path id="path2276" d="m243.1 229.77c-0.367 0-0.703-0.046-1.007-0.138-0.297-0.099-0.555-0.237-0.774-0.413-0.219-0.177-0.392-0.389-0.519-0.636-0.12-0.255-0.184-0.537-0.191-0.848h1.367c0.036 0.247 0.166 0.441 0.393 0.583 0.226 0.134 0.526 0.201 0.901 0.201 0.247 0 0.445-0.042 0.593-0.127 0.149-0.085 0.223-0.198 0.223-0.339 0-0.198-0.124-0.325-0.371-0.382l-1.537-0.392c-0.177-0.042-0.354-0.099-0.53-0.17-0.17-0.077-0.325-0.173-0.467-0.286-0.134-0.12-0.243-0.268-0.328-0.445s-0.127-0.389-0.127-0.636c0-0.551 0.197-0.986 0.593-1.304s0.951-0.477 1.664-0.477c0.714 0 1.276 0.166 1.686 0.498 0.417 0.325 0.636 0.795 0.657 1.41h-1.378c-0.014-0.219-0.117-0.381-0.307-0.487-0.184-0.113-0.439-0.17-0.764-0.17-0.303 0-0.515 0.046-0.636 0.138-0.12 0.092-0.18 0.194-0.18 0.307 0 0.106 0.039 0.191 0.117 0.255 0.085 0.056 0.205 0.102 0.36 0.137l1.58 0.393c0.183 0.042 0.353 0.102 0.508 0.18 0.163 0.078 0.301 0.176 0.414 0.297 0.12 0.12 0.212 0.265 0.275 0.434 0.071 0.163 0.106 0.361 0.106 0.594 0 0.282-0.056 0.537-0.169 0.763-0.106 0.226-0.262 0.417-0.467 0.572-0.205 0.156-0.452 0.276-0.742 0.361-0.282 0.085-0.597 0.127-0.943 0.127z"/>
    <path id="path2278" d="m247 222.22h1.378v5.088h-1.378zm0 6.042h1.378v1.378h-1.378z"/>
   </g>
   <g fill="#fafafa">
    <path id="path2299" d="m169.15 228.94c-0.947 0-1.671-0.233-2.173-0.7-0.495-0.466-0.742-1.123-0.742-1.971v-2.396c0-0.848 0.247-1.505 0.742-1.971 0.502-0.467 1.226-0.7 2.173-0.7 0.367 0 0.717 0.049 1.049 0.148 0.333 0.099 0.626 0.255 0.88 0.467 0.255 0.205 0.456 0.473 0.604 0.805 0.149 0.325 0.223 0.718 0.223 1.177v0.106h-1.505v-0.106c0-0.219-0.039-0.406-0.117-0.562-0.07-0.155-0.169-0.279-0.297-0.371-0.127-0.099-0.272-0.169-0.434-0.212-0.163-0.049-0.329-0.074-0.498-0.074-0.446 0-0.778 0.106-0.997 0.318-0.212 0.212-0.318 0.502-0.318 0.869v2.608c0 0.367 0.106 0.657 0.318 0.869 0.219 0.212 0.551 0.318 0.997 0.318 0.169 0 0.335-0.021 0.498-0.064 0.162-0.042 0.307-0.109 0.434-0.201 0.128-0.099 0.227-0.226 0.297-0.382 0.078-0.155 0.117-0.346 0.117-0.572v-0.106h1.505v0.106c0 0.459-0.074 0.855-0.223 1.187-0.148 0.325-0.349 0.594-0.604 0.806-0.254 0.205-0.547 0.357-0.88 0.456-0.332 0.099-0.682 0.148-1.049 0.148z"/>
    <path id="path2301" d="m175.52 227.66c0.346 0 0.604-0.085 0.774-0.254 0.169-0.17 0.254-0.375 0.254-0.615v-1.569c0-0.24-0.085-0.445-0.254-0.615-0.17-0.169-0.428-0.254-0.774-0.254-0.36 0-0.625 0.088-0.795 0.265-0.163 0.169-0.244 0.371-0.244 0.604v1.569c0 0.233 0.081 0.438 0.244 0.615 0.17 0.169 0.435 0.254 0.795 0.254zm0 1.251c-0.403 0-0.756-0.053-1.06-0.159s-0.558-0.251-0.763-0.435c-0.198-0.184-0.346-0.399-0.445-0.646-0.099-0.255-0.149-0.527-0.149-0.817v-1.696c0-0.289 0.05-0.558 0.149-0.805 0.099-0.255 0.247-0.474 0.445-0.657 0.205-0.184 0.459-0.329 0.763-0.435s0.657-0.159 1.06-0.159 0.753 0.053 1.049 0.159c0.304 0.106 0.555 0.251 0.753 0.435 0.205 0.183 0.357 0.402 0.456 0.657 0.099 0.247 0.148 0.516 0.148 0.805v1.696c0 0.29-0.049 0.562-0.148 0.817-0.099 0.247-0.251 0.462-0.456 0.646-0.198 0.184-0.449 0.329-0.753 0.435-0.296 0.106-0.646 0.159-1.049 0.159z"/>
    <path id="path2303" d="m179.34 223.23h0.795l0.403 0.551c0.176-0.169 0.396-0.325 0.657-0.466 0.269-0.142 0.597-0.212 0.986-0.212 0.6 0 1.07 0.191 1.41 0.572 0.346 0.375 0.519 0.901 0.519 1.58v3.529h-1.378v-3.445c0-0.339-0.085-0.586-0.254-0.742-0.163-0.162-0.364-0.243-0.605-0.243-0.134 0-0.261 0.021-0.381 0.063-0.12 0.043-0.233 0.096-0.339 0.159-0.099 0.057-0.188 0.12-0.265 0.191-0.071 0.064-0.128 0.12-0.17 0.17v3.847h-1.378z"/>
    <path id="path2305" d="m190.37 228.44c0 0.36-0.06 0.675-0.18 0.943-0.113 0.276-0.276 0.502-0.488 0.679-0.205 0.184-0.456 0.318-0.752 0.403-0.29 0.091-0.608 0.137-0.954 0.137-0.707 0-1.269-0.159-1.686-0.477s-0.625-0.763-0.625-1.335v-0.043h1.378v0.032c0 0.064 0.014 0.127 0.042 0.191 0.036 0.071 0.089 0.134 0.159 0.191 0.071 0.056 0.163 0.102 0.276 0.138 0.12 0.035 0.268 0.053 0.445 0.053 0.36 0 0.618-0.085 0.774-0.255 0.155-0.169 0.233-0.388 0.233-0.657v-0.636c-0.057 0.049-0.131 0.106-0.223 0.17-0.084 0.056-0.19 0.113-0.318 0.169-0.12 0.05-0.258 0.092-0.413 0.127-0.155 0.036-0.329 0.053-0.519 0.053-0.269 0-0.523-0.038-0.764-0.116-0.24-0.085-0.452-0.212-0.636-0.382-0.176-0.169-0.318-0.381-0.424-0.636-0.099-0.254-0.148-0.555-0.148-0.901v-1.155c0-0.346 0.049-0.647 0.148-0.901 0.106-0.255 0.248-0.467 0.424-0.636 0.184-0.17 0.396-0.293 0.636-0.371 0.241-0.085 0.495-0.127 0.764-0.127 0.402 0 0.731 0.067 0.985 0.201 0.255 0.134 0.477 0.293 0.668 0.477l0.403-0.551h0.795zm-1.378-3.509c-0.141-0.141-0.307-0.272-0.498-0.392-0.191-0.127-0.421-0.191-0.689-0.191-0.106 0-0.212 0.022-0.318 0.064-0.106 0.035-0.202 0.092-0.286 0.17-0.078 0.07-0.145 0.162-0.202 0.275-0.049 0.106-0.074 0.233-0.074 0.382v0.943c0 0.149 0.025 0.279 0.074 0.392 0.057 0.106 0.124 0.198 0.202 0.276 0.084 0.071 0.18 0.127 0.286 0.17 0.106 0.035 0.212 0.053 0.318 0.053 0.268 0 0.498-0.06 0.689-0.181 0.191-0.127 0.357-0.261 0.498-0.402z"/>
    <path id="path2307" d="m192.02 223.23h0.795l0.403 0.551c0.134-0.155 0.314-0.307 0.54-0.456 0.234-0.148 0.534-0.222 0.901-0.222h0.287v1.325h-0.287c-0.296 0-0.544 0.039-0.742 0.116-0.19 0.078-0.364 0.209-0.519 0.393v3.847h-1.378z"/>
    <path id="path2309" d="m197.46 228.91c-0.247 0-0.484-0.035-0.71-0.106s-0.424-0.173-0.594-0.307c-0.169-0.142-0.307-0.315-0.413-0.52-0.099-0.205-0.149-0.445-0.149-0.721 0-0.572 0.184-1.014 0.552-1.325 0.374-0.318 0.939-0.477 1.696-0.477h1.144v-0.349c0-0.241-0.07-0.424-0.212-0.552-0.141-0.134-0.367-0.201-0.678-0.201-0.318 0-0.548 0.06-0.689 0.18-0.134 0.12-0.201 0.272-0.201 0.456h-1.347c0-0.276 0.043-0.526 0.128-0.753 0.091-0.233 0.229-0.431 0.413-0.593 0.191-0.17 0.424-0.301 0.7-0.392 0.282-0.099 0.614-0.149 0.996-0.149s0.714 0.05 0.996 0.149c0.283 0.091 0.52 0.222 0.711 0.392 0.19 0.169 0.332 0.371 0.424 0.604 0.091 0.233 0.137 0.488 0.137 0.763v3.774h-0.795l-0.402-0.541c-0.205 0.184-0.439 0.343-0.7 0.477-0.254 0.127-0.59 0.191-1.007 0.191zm0.286-1.251c0.269 0 0.502-0.042 0.7-0.127 0.198-0.092 0.378-0.23 0.54-0.413v-0.615h-1.144c-0.184 0-0.333 0.021-0.446 0.063-0.113 0.036-0.201 0.082-0.265 0.138-0.063 0.057-0.106 0.12-0.127 0.191-0.021 0.064-0.032 0.124-0.032 0.18 0 0.389 0.258 0.583 0.774 0.583z"/>
    <path id="path2311" d="m204.18 228.78c-0.41 0-0.749-0.06-1.018-0.18-0.261-0.12-0.47-0.279-0.625-0.477-0.148-0.198-0.251-0.421-0.307-0.668-0.057-0.254-0.085-0.516-0.085-0.784v-2.248h-0.816v-1.197h0.816v-1.156h1.378v1.156h1.261v1.197h-1.261v2.248c0 0.36 0.07 0.604 0.212 0.731 0.148 0.12 0.346 0.18 0.593 0.18h0.456v1.198z"/>
    <path id="path2313" d="m210.74 228.78h-0.795l-0.403-0.541c-0.176 0.163-0.396 0.315-0.657 0.456-0.261 0.142-0.583 0.212-0.965 0.212-0.6 0-1.07-0.187-1.409-0.562-0.333-0.374-0.499-0.897-0.499-1.568v-3.551h1.378v3.466c0 0.339 0.082 0.586 0.244 0.742 0.163 0.148 0.361 0.222 0.594 0.222 0.134 0 0.258-0.021 0.371-0.063 0.12-0.043 0.229-0.092 0.328-0.149 0.099-0.063 0.184-0.127 0.255-0.19 0.078-0.064 0.138-0.121 0.18-0.17v-3.858h1.378z"/>
    <path id="path2315" d="m212.4 221.31h1.378v7.473h-1.378z"/>
    <path id="path2317" d="m216.92 228.91c-0.247 0-0.484-0.035-0.71-0.106s-0.424-0.173-0.594-0.307c-0.169-0.142-0.307-0.315-0.413-0.52-0.099-0.205-0.149-0.445-0.149-0.721 0-0.572 0.184-1.014 0.552-1.325 0.374-0.318 0.939-0.477 1.696-0.477h1.144v-0.349c0-0.241-0.07-0.424-0.212-0.552-0.141-0.134-0.367-0.201-0.678-0.201-0.318 0-0.548 0.06-0.689 0.18-0.134 0.12-0.201 0.272-0.201 0.456h-1.347c0-0.276 0.043-0.526 0.128-0.753 0.091-0.233 0.229-0.431 0.413-0.593 0.191-0.17 0.424-0.301 0.7-0.392 0.282-0.099 0.614-0.149 0.996-0.149s0.714 0.05 0.996 0.149c0.283 0.091 0.52 0.222 0.711 0.392 0.19 0.169 0.332 0.371 0.424 0.604 0.091 0.233 0.137 0.488 0.137 0.763v3.774h-0.795l-0.402-0.541c-0.205 0.184-0.439 0.343-0.7 0.477-0.254 0.127-0.59 0.191-1.007 0.191zm0.286-1.251c0.269 0 0.502-0.042 0.7-0.127 0.198-0.092 0.378-0.23 0.54-0.413v-0.615h-1.144c-0.184 0-0.333 0.021-0.446 0.063-0.113 0.036-0.201 0.082-0.265 0.138-0.063 0.057-0.106 0.12-0.127 0.191-0.021 0.064-0.032 0.124-0.032 0.18 0 0.389 0.258 0.583 0.774 0.583z"/>
    <path id="path2319" d="m223.64 228.78c-0.41 0-0.749-0.06-1.018-0.18-0.261-0.12-0.47-0.279-0.625-0.477-0.148-0.198-0.251-0.421-0.307-0.668-0.057-0.254-0.085-0.516-0.085-0.784v-2.248h-0.816v-1.197h0.816v-1.156h1.378v1.156h1.261v1.197h-1.261v2.248c0 0.36 0.07 0.604 0.212 0.731 0.148 0.12 0.346 0.18 0.593 0.18h0.456v1.198z"/>
    <path id="path2321" d="m225.53 223.23h1.378v5.554h-1.378zm0-1.919h1.378v1.166h-1.378z"/>
    <path id="path2323" d="m230.73 227.66c0.346 0 0.604-0.085 0.774-0.254 0.169-0.17 0.254-0.375 0.254-0.615v-1.569c0-0.24-0.085-0.445-0.254-0.615-0.17-0.169-0.428-0.254-0.774-0.254-0.36 0-0.625 0.088-0.795 0.265-0.163 0.169-0.244 0.371-0.244 0.604v1.569c0 0.233 0.081 0.438 0.244 0.615 0.17 0.169 0.435 0.254 0.795 0.254zm0 1.251c-0.403 0-0.756-0.053-1.06-0.159s-0.558-0.251-0.763-0.435c-0.198-0.184-0.346-0.399-0.445-0.646-0.099-0.255-0.149-0.527-0.149-0.817v-1.696c0-0.289 0.05-0.558 0.149-0.805 0.099-0.255 0.247-0.474 0.445-0.657 0.205-0.184 0.459-0.329 0.763-0.435s0.657-0.159 1.06-0.159 0.753 0.053 1.049 0.159c0.304 0.106 0.555 0.251 0.753 0.435 0.205 0.183 0.357 0.402 0.456 0.657 0.099 0.247 0.148 0.516 0.148 0.805v1.696c0 0.29-0.049 0.562-0.148 0.817-0.099 0.247-0.251 0.462-0.456 0.646-0.198 0.184-0.449 0.329-0.753 0.435-0.296 0.106-0.646 0.159-1.049 0.159z"/>
    <path id="path2325" d="m234.55 223.23h0.795l0.403 0.551c0.176-0.169 0.396-0.325 0.657-0.466 0.269-0.142 0.597-0.212 0.986-0.212 0.6 0 1.07 0.191 1.41 0.572 0.346 0.375 0.519 0.901 0.519 1.58v3.529h-1.378v-3.445c0-0.339-0.085-0.586-0.254-0.742-0.163-0.162-0.364-0.243-0.605-0.243-0.134 0-0.261 0.021-0.381 0.063-0.12 0.043-0.233 0.096-0.339 0.159-0.099 0.057-0.188 0.12-0.265 0.191-0.071 0.064-0.128 0.12-0.17 0.17v3.847h-1.378z"/>
    <path id="path2327" d="m243.1 228.91c-0.367 0-0.703-0.046-1.007-0.138-0.297-0.099-0.555-0.237-0.774-0.413-0.219-0.177-0.392-0.389-0.519-0.636-0.12-0.255-0.184-0.537-0.191-0.848h1.367c0.036 0.247 0.166 0.441 0.393 0.583 0.226 0.134 0.526 0.201 0.901 0.201 0.247 0 0.445-0.042 0.593-0.127 0.149-0.085 0.223-0.198 0.223-0.339 0-0.198-0.124-0.325-0.371-0.382l-1.537-0.392c-0.177-0.042-0.354-0.099-0.53-0.17-0.17-0.077-0.325-0.173-0.467-0.286-0.134-0.12-0.243-0.268-0.328-0.445s-0.127-0.389-0.127-0.636c0-0.551 0.197-0.986 0.593-1.304s0.951-0.477 1.664-0.477c0.714 0 1.276 0.166 1.686 0.498 0.417 0.325 0.636 0.795 0.657 1.41h-1.378c-0.014-0.219-0.117-0.381-0.307-0.487-0.184-0.113-0.439-0.17-0.764-0.17-0.303 0-0.515 0.046-0.636 0.138-0.12 0.092-0.18 0.194-0.18 0.307 0 0.106 0.039 0.191 0.117 0.255 0.085 0.056 0.205 0.102 0.36 0.137l1.58 0.393c0.183 0.042 0.353 0.102 0.508 0.18 0.163 0.078 0.301 0.176 0.414 0.297 0.12 0.12 0.212 0.265 0.275 0.434 0.071 0.163 0.106 0.361 0.106 0.594 0 0.282-0.056 0.537-0.169 0.763-0.106 0.226-0.262 0.417-0.467 0.572-0.205 0.156-0.452 0.276-0.742 0.361-0.282 0.085-0.597 0.127-0.943 0.127z"/>
    <path id="path2329" d="m247 221.36h1.378v5.088h-1.378zm0 6.042h1.378v1.378h-1.378z"/>
   </g>
  </g>
 </g>
</svg>
