<svg version="1.2" viewBox="0 0 24 24" id="svg4" sodipodi:docname="refresh.svg" inkscape:version="1.1 (c4e8f9ed74, 2021-05-24)" xmlns:inkscape="http://www.inkscape.org/namespaces/inkscape" xmlns:sodipodi="http://sodipodi.sourceforge.net/DTD/sodipodi-0.dtd" xmlns="http://www.w3.org/2000/svg" xmlns:svg="http://www.w3.org/2000/svg">
    <defs id="defs8" />
    <sodipodi:namedview id="namedview6" pagecolor="#ffffff" bordercolor="#666666" borderopacity="1.0" inkscape:pageshadow="2" inkscape:pageopacity="0.0" inkscape:pagecheckerboard="0" showgrid="false" inkscape:zoom="22.951508" inkscape:cx="13.572093" inkscape:cy="13.833514" inkscape:current-layer="svg4" />
    <path d="M 13.744,12.384164 H 24 V 2.1320745 C 23.984,-0.13750265 22.658001,-0.68340095 21.054,0.92229992 L 18.745999,3.2378683 C 16.716001,1.6481646 14.232,0.7783267 11.614,0.7783267 c -3.1,0 -6.018,1.207775 -8.208,3.4013663 C 1.2080001,6.3632861 0,9.2847415 0,12.384164 0,15.489585 1.2080001,18.407042 3.4019999,20.596634 5.596,22.790225 8.5120001,24 11.614,24 c 3.1,0 6.018,-1.209775 8.212,-3.405365 0.592,-0.593889 1.116,-1.24177 1.56,-1.929641 0.694,-1.081799 0.38,-2.519531 -0.7,-3.209403 -1.077999,-0.691871 -2.516,-0.377929 -3.208,0.69987 -0.266,0.413923 -0.584,0.799852 -0.936,1.159785 -1.318,1.315754 -3.068,2.03962 -4.928,2.03962 -1.86,0 -3.61,-0.721866 -4.928,-2.03962 -1.314,-1.315756 -2.04,-3.06543 -2.04,-4.929083 0,-1.859652 0.7240001,-3.6093265 2.04,-4.9210821 1.318,-1.315755 3.068,-2.0416198 4.928,-2.0416198 1.376,0 2.692,0.4019253 3.817999,1.143787 L 12.536,9.4687076 c -1.606,1.6037014 -1.059999,2.9154564 1.208,2.9154564 z" id="path2" style="stroke-width:1.99981" />
</svg>