<svg width="173.8mm" height="386.53" version="1.1" viewBox="0 0 173.8 102.27" xmlns="http://www.w3.org/2000/svg">
 <g id="trophy">
  <path id="path7" transform="translate(-119.4 -157.13)" d="M192.93 167.13c-2.66 0-5.37-.306-7.63 1.12-1.13.713-1.75 1.92-1.98 2.97-.23 1.06-.209 2.05-.209 3.02 0 1.92-.015 4.31.756 6.88s2.23 5.1 4.08 7.06 4.08 3.25 6.48 3.88c2.4.632 4.82.609 7.08.609a1.831 1.831 0 0 0 0-3.66c-2.27 0-4.38-.023-6.15-.488s-3.34-1.37-4.75-2.85c-1.41-1.49-2.65-3.65-3.24-5.6-.585-1.95-.6-3.9-.6-5.82 0-.961.02-1.76.123-2.24.103-.472.152-.525.352-.65.399-.251 3.02-.557 5.68-.557a1.831 1.831 0 0 0 0-3.66zM222.13 167.13c2.66 0 5.37-.306 7.63 1.12 1.13.713 1.75 1.92 1.98 2.97.23 1.06.209 2.05.209 3.02 0 1.92.015 4.31-.756 6.88s-2.23 5.1-4.08 7.06-4.08 3.25-6.48 3.88c-2.4.632-4.82.609-7.08.609a1.831 1.831 0 0 1 0-3.66c2.27 0 4.38-.023 6.15-.488s3.34-1.37 4.75-2.85c1.41-1.49 2.65-3.65 3.24-5.6.585-1.95.6-3.9.6-5.82 0-.961-.02-1.76-.123-2.24-.103-.472-.152-.525-.352-.65-.399-.251-3.02-.557-5.68-.557a1.831 1.831 0 0 1 0-3.66z" fill="#ffb83a" style="-inkscape-stroke:none"/>
  <path id="path9" d="M83.63 39c.987 1.71 2.02 3.12 2.02 6.7v6.21h4.52V45.7c0-3.57 1.03-4.99 2.02-6.7z" fill="#fdb83c"/>
  <path id="path11" d="M72.03 3v22.9c0 8.9 7.17 16.1 16.1 16.1 8.9 0 16.1-7.17 16.1-16.1V3h-16.1z" fill="#fed44e"/>
  <path id="path13" d="M85.63 50v2.41h4.52V50z" fill="#f29d1f"/>
  <path id="path15" d="m77.13 51h21.6v4.74h-21.6z" fill="#ffb83a"/>
  <g fill="#fafafa">
   <path id="path17" transform="translate(-119.4 -157.13)" d="M207.54 174c.432 0 2.105 3.296 2.453 3.551.349.254 4.001.828 4.134 1.237.133.411-2.484 3.02-2.617 3.434-.133.411.451 4.062.102 4.318-.349.254-3.644-1.431-4.073-1.431-.432 0-3.725 1.686-4.073 1.431-.349-.254.235-3.904.101-4.318-.133-.414-2.754-3.02-2.616-3.434.134-.411 3.787-.981 4.134-1.237.349-.254 2.024-3.551 2.453-3.551z" stroke="#fafafa" stroke-linecap="round" stroke-linejoin="round" stroke-width=".772" style="paint-order:markers stroke fill"/>
   <path id="path19" transform="translate(-119.4 -157.13)" d="M213.13 172.13a.365.365 0 0 1-.366.366c-.436.025-.715-.186-.715.296s.352.296.715.296c.203 0 .366.163.366.366.025.436-.167.715.296.715s.296-.352.296-.715c0-.203.163-.366.366-.366.436-.025.715.18.715-.296 0-.475-.352-.296-.715-.296a.365.365 0 0 1-.366-.366c-.025-.436.178-.715-.296-.715s-.296.352-.296.715zM216.13 167.13c0 .573-.461 1.03-1.03 1.03-1.23.071-2.02-.527-2.02.836s.994.836 2.02.836c.573 0 1.03.461 1.03 1.03.071 1.23-.471 2.02.836 2.02 1.31 0 .836-.994.836-2.02 0-.573.461-1.03 1.03-1.03 1.23-.071 2.02.508 2.02-.836 0-1.34-.994-.836-2.02-.836-.572 0-1.03-.461-1.03-1.03-.071-1.23.504-2.02-.836-2.02s-.836.994-.836 2.02z" style="paint-order:markers stroke fill"/>
   <g fill-opacity=".587">
    <path id="path21" transform="translate(-119.4 -157.13)" d="m214.14 164.3-9.176 34.631a16.304 16.304 0 0 0 4.959 0.027l9.183-34.658zm-10.33-0.02-7.889 29.921a16.036 16.036 0 0 0 7.692 4.453l9.062-34.374h-6.297zm-2.83 0.01-7.221 27.112c0.316 0.52 0.661 1.02 1.032 1.499l7.621-28.612z" style="mix-blend-mode:soft-light;paint-order:markers stroke fill"/>
   </g>
  </g>
  <path id="path27" transform="translate(-119.4 -157.13)" d="m191.43 160.13h32.1v4.25h-32.1z" fill="#fec652" style="paint-order:markers stroke fill"/>
  <g fill="#fafafa" fill-opacity=".587" stroke-width=".369">
   <path id="path29" transform="translate(-119.4 -157.13)" d="m215.31 160.13-1.132 4.25h4.905l1.132-4.25zm-10.33 0-1.132 4.25h8.796l1.132-4.25zm-2.87 0-1.132 4.25h1.405l1.133-4.25z" style="mix-blend-mode:soft-light;paint-order:markers stroke fill"/>
  </g>
  <path id="path33" d="M71.57 0h33.02c1.352 0 2.44 1.088 2.44 2.44s-1.088 2.44-2.44 2.44H71.57c-1.352 0-2.44-1.088-2.44-2.44S70.218 0 71.57 0z" fill="#ffd550"/>
  <g fill="#fafafa">
   <path id="path35" transform="translate(-119.4 -157.13)" d="M194.33 161.13a.512.512 0 0 1-.513.513c-.612.035-1-.261-1 .415s.493.415 1 .415c.284 0 .513.229.513.513.035.612-.234 1 .415 1s.415-.493.415-1c0-.284.229-.513.513-.513.612-.035 1 .252 1-.415s-.493-.415-1-.415a.512.512 0 0 1-.513-.513c-.035-.612.25-1-.415-1s-.415.493-.415 1z" style="paint-order:markers stroke fill"/>
   <g fill-opacity=".587" stroke-width=".369">
    <path id="path37" transform="translate(-119.4 -157.13)" d="m217.74 157.13-1.3 4.88h4.905l1.3-4.88zm-10.33 0-1.3 4.88h8.796l1.3-4.88zm-2.87 0-1.3 4.88h1.406l1.3-4.88z" style="mix-blend-mode:soft-light;paint-order:markers stroke fill"/>
   </g>
  </g>
  <path id="path43" transform="translate(-119.4 -157.13)" d="m212.13 208.13h1.23v3.44h-1.23zm2 0h3.19v3.44h-3.19z" fill="#fff" style="mix-blend-mode:soft-light;paint-order:markers stroke fill"/>
  <path id="path45" d="m72.93 53h29.8v4.74h-29.8z" fill="#fdd34e"/>
  <path id="path47" transform="translate(-119.4 -157.13)" d="m213.17 210.13h1.697v5.067h-1.697zm2.76 0h4.402v5.067h-4.402z" fill="#fff" style="mix-blend-mode:soft-light;paint-order:markers stroke fill"/>
 </g>
 <g id="crown">
  <g id="crown_left">
   <path id="path49" d="M63.69 40.3c-1.865 3.702-2.013 7.971-.405 11.7 1.654 3.73 4.912 6.527 8.92 7.66z" fill="#3a9104"/>
   <path id="path51" d="M63.69 40.3c4.008 1.133 7.266 3.93 8.92 7.66 1.608 3.729 1.46 7.998-.405 11.7z" fill="#9bdb4d"/>
   <path id="path53" d="M54.29 32.3c-2.187 2.602-3.09 5.976-2.47 9.23.607 3.258 2.676 6.072 5.66 7.7z" fill="#3a9104"/>
   <path id="path55" d="M54.29 32.3c2.984 1.628 5.053 4.442 5.66 7.7.62 3.254-.283 6.628-2.47 9.23z" fill="#9bdb4d"/>
   <path id="path57" d="M48.39 21.3c-2.7 1.545-4.549 4.161-5.06 7.16-.506 3.001.378 6.082 2.42 8.43z" fill="#3a9104"/>
   <path id="path59" d="M48.39 21.3c2.042 2.348 2.926 5.429 2.42 8.43-.511 2.999-2.36 5.615-5.06 7.16z" fill="#9bdb4d"/>
   <path id="path61" d="M39.29 10.3c-1.525 1.902-2.121 4.339-1.63 6.67.492 2.328 2.019 4.316 4.18 5.44z" fill="#68b723"/>
   <path id="path63" d="M39.29 10.3c2.161 1.124 3.688 3.112 4.18 5.44.491 2.331-.105 4.768-1.63 6.67z" fill="#9bdb4d"/>
   <path id="path65" d="M51.79 54.3c1.725 3.791 4.983 6.588 8.92 7.66 3.959 1.056 8.198.263 11.6-2.17z" fill="#68b723"/>
   <path id="path67" d="m51.79 54.3c3.402-2.433 7.641-3.226 11.6-2.17 3.937 1.072 7.195 3.869 8.92 7.66z" fill="#9bdb4d"/>
   <path id="path69" d="M42.97 39.94c.392 3.376 2.227 6.348 5.02 8.13 2.788 1.793 6.258 2.217 9.49 1.16z" fill="#68b723"/>
   <path id="path71" d="M42.97 39.94c3.232-1.057 6.702-.633 9.49 1.16 2.793 1.782 4.628 4.754 5.02 8.13z" fill="#9bdb4d"/>
   <path id="path73" d="M36.19 24.3c-.73 3.022-.097 6.16 1.73 8.59 1.836 2.425 4.683 3.894 7.79 4.02z" fill="#68b723"/>
   <path id="path75" d="M36.19 24.3c3.107.126 5.954 1.595 7.79 4.02 1.827 2.43 2.46 5.568 1.73 8.59z" fill="#9bdb4d"/>
  </g>
  <g id="crown_right">
   <path id="path77" d="M111.63 40c1.865 3.702 2.013 7.971.405 11.7-1.654 3.73-4.912 6.527-8.92 7.66z" fill="#3a9104"/>
   <path id="path79" d="M111.63 40c-4.008 1.133-7.266 3.93-8.92 7.66-1.608 3.729-1.46 7.998.405 11.7z" fill="#9bdb4d"/>
   <path id="path81" d="M120.63 32c2.187 2.602 3.09 5.976 2.47 9.23-.607 3.258-2.676 6.072-5.66 7.7z" fill="#3a9104"/>
   <path id="path83" d="M120.63 32c-2.984 1.628-5.053 4.442-5.66 7.7-.62 3.254.283 6.628 2.47 9.23z" fill="#9bdb4d"/>
   <path id="path85" d="M126.63 21c2.7 1.545 4.549 4.161 5.06 7.16.506 3.001-.378 6.082-2.42 8.43z" fill="#3a9104"/>
   <path id="path87" d="M126.63 21c-2.042 2.348-2.926 5.429-2.42 8.43.511 2.999 2.36 5.615 5.06 7.16z" fill="#9bdb4d"/>
   <path id="path89" d="M135.63 10c1.525 1.902 2.121 4.339 1.63 6.67-.492 2.328-2.019 4.316-4.18 5.44z" fill="#68b723"/>
   <path id="path91" d="M135.63 10c-2.161 1.124-3.688 3.112-4.18 5.44-.491 2.331.105 4.768 1.63 6.67z" fill="#9bdb4d"/>
   <path id="path93" d="M123.63 54c-1.725 3.791-4.983 6.588-8.92 7.66-3.959 1.056-8.198.263-11.6-2.17z" fill="#68b723"/>
   <path id="path95" d="m123.63 54c-3.402-2.433-7.641-3.226-11.6-2.17-3.937 1.072-7.195 3.869-8.92 7.66z" fill="#9bdb4d"/>
   <path id="path97" d="M131.95 39.64c-.392 3.376-2.227 6.348-5.02 8.13-2.788 1.793-6.258 2.217-9.49 1.16z" fill="#68b723"/>
   <path id="path99" d="M131.95 39.64c-3.232-1.057-6.702-.633-9.49 1.16-2.793 1.782-4.628 4.754-5.02 8.13z" fill="#9bdb4d"/>
   <path id="path101" d="M138.79 23.98c.73 3.022.097 6.16-1.73 8.59-1.836 2.425-4.683 3.894-7.79 4.02z" fill="#68b723"/>
   <path id="path103" d="M138.79 23.98c-3.107.126-5.954 1.595-7.79 4.02-1.827 2.43-2.46 5.568-1.73 8.59z" fill="#9bdb4d"/>
  </g>
 </g>
 <g id="banner">
  <path id="path111" transform="translate(-119.4 -157.13)" d="M154.33 226.97a77.939 77.939 0 0 0-17.346 3.186c-4.236 1.29-6.728 2.49-6.728 2.49-1.112.497-.897 1.733.136 2.009 2.248.644 4.148 1.04 6.115 2.795-2.912 2.579-4.501 5.704-5.921 8.68-.407.851.38 1.783 1.287 1.525 0 0 2.375-.679 6.539-1.488a139.238 139.238 0 0 1 17.064-2.213 1.094 1.094 0 0 0 1.019-1.166l-1-14.801a1.095 1.095 0 0 0-1.166-1.017z" fill="#842dc5" style="-inkscape-stroke:none;paint-order:markers stroke fill"/>
  <path id="path113" d="m29.53 72.48-5.194 11.324c5.914-.545 8.934 1.162 10.311 3.123.473-.037.949-.073 1.432-.105a1.095 1.095 0 0 0 1.019-1.166l-.762-11.283-.13-.818z" fill="#471e73"/>
  <path id="path115" transform="translate(-119.4 -157.13)" d="M157.8 219.5c-8.823 1.219-14.057 2.438-14.057 2.438a1.74 1.74 0 0 0-1.346 1.695v15.779a1.74 1.74 0 0 0 1.959 1.726s5.044-.638 13.809-1.281a1.74 1.74 0 0 0 1.614-1.734v-16.9a1.74 1.74 0 0 0-1.979-1.723z" fill="#9134da" style="-inkscape-stroke:none;paint-order:markers stroke fill"/>
  <path id="path117" transform="translate(-119.4 -157.13)" d="m159.77 225.66-11.27 10.957c4.951.449 8.934.839 9.573 3.25l.084-.007a1.74 1.74 0 0 0 1.614-1.734z" fill="#471e73" style="-inkscape-stroke:none;paint-order:markers stroke fill"/>
  <path id="path119" transform="translate(-119.4 -157.13)" d="M258.28 226.97a77.939 77.939 0 0 1 17.346 3.186c4.236 1.29 6.728 2.49 6.728 2.49 1.112.497.897 1.733-.136 2.009-2.248.644-4.148 1.04-6.115 2.795 2.912 2.579 4.501 5.704 5.921 8.68.407.851-.38 1.783-1.287 1.525 0 0-2.375-.679-6.539-1.488a139.238 139.238 0 0 0-17.064-2.213 1.094 1.094 0 0 1-1.019-1.166l1-14.801a1.095 1.095 0 0 1 1.166-1.017z" fill="#842dc5" style="-inkscape-stroke:none;paint-order:markers stroke fill"/>
  <path id="path121" d="m144.28 72.48 5.194 11.325c-5.914-.546-8.934 1.161-10.311 3.122-.472-.037-.949-.072-1.431-.105a1.094 1.094 0 0 1-1.02-1.165l.762-11.283.13-.818z" fill="#471e73"/>
  <path id="path123" transform="translate(-119.4 -157.13)" d="M254.81 219.5c8.823 1.219 14.057 2.438 14.057 2.438a1.74 1.74 0 0 1 1.346 1.695v15.779a1.74 1.74 0 0 1-1.959 1.726s-5.044-.638-13.809-1.281a1.74 1.74 0 0 1-1.614-1.734v-16.9a1.74 1.74 0 0 1 1.979-1.723z" fill="#9134da" style="-inkscape-stroke:none;paint-order:markers stroke fill"/>
  <path id="path125" transform="translate(-119.4 -157.13)" d="m252.83 225.65 11.27 10.957c-4.951.449-8.934.839-9.573 3.25l-.084-.006a1.74 1.74 0 0 1-1.613-1.735z" fill="#471e73" style="-inkscape-stroke:none;paint-order:markers stroke fill"/>
  <path id="path127" transform="translate(-119.4 -157.13)" d="M206.23 214.08c-33.822 0-57.547.555-57.547.555a2 2 0 0 0-1.953 2v18.1a2 2 0 0 0 2.004 2s23.698-.047 57.496-.047 57.496.047 57.496.047a2 2 0 0 0 2.004-2v-18.1a2 2 0 0 0-1.953-2s-23.725-.555-57.547-.555z" fill="#a541f2" style="-inkscape-stroke:none;paint-order:markers stroke fill"/>
  <g id="bannertext" stroke-linecap="round" stroke-linejoin="round" stroke-width=".265">
   <g fill="#452981">
    <path id="path129" d="M49.75 72.67c-.947 0-1.671-.233-2.173-.7-.495-.466-.742-1.123-.742-1.971v-2.396c0-.848.247-1.505.742-1.971.502-.467 1.226-.7 2.173-.7.367 0 .717.049 1.049.148.333.099.626.255.88.467.255.205.456.473.604.805.149.325.223.718.223 1.177v.106h-1.505v-.106c0-.219-.039-.406-.117-.562a.905.905 0 0 0-.297-.371 1.196 1.196 0 0 0-.434-.212 1.721 1.721 0 0 0-.498-.074c-.446 0-.778.106-.997.318-.212.212-.318.502-.318.869v2.608c0 .367.106.657.318.869.219.212.551.318.997.318.169 0 .335-.021.498-.064a1.28 1.28 0 0 0 .434-.201.981.981 0 0 0 .297-.382c.078-.155.117-.346.117-.572v-.106h1.505v.106c0 .459-.074.855-.223 1.187a2.232 2.232 0 0 1-.604.806 2.534 2.534 0 0 1-.88.456 3.653 3.653 0 0 1-1.049.148zM56.12 71.39c.346 0 .604-.085.774-.254a.841.841 0 0 0 .254-.615v-1.569a.841.841 0 0 0-.254-.615c-.17-.169-.428-.254-.774-.254-.36 0-.625.088-.795.265a.84.84 0 0 0-.244.604v1.569a.88.88 0 0 0 .244.615c.17.169.435.254.795.254zm0 1.251c-.403 0-.756-.053-1.06-.159s-.558-.251-.763-.435a1.771 1.771 0 0 1-.445-.646 2.236 2.236 0 0 1-.149-.817v-1.696c0-.289.05-.558.149-.805.099-.255.247-.474.445-.657.205-.184.459-.329.763-.435s.657-.159 1.06-.159.753.053 1.049.159c.304.106.555.251.753.435.205.183.357.402.456.657.099.247.148.516.148.805v1.696c0 .29-.049.562-.148.817a1.718 1.718 0 0 1-.456.646 2.11 2.11 0 0 1-.753.435 3.116 3.116 0 0 1-1.049.159zM59.94 66.96h.795l.403.551a3.01 3.01 0 0 1 .657-.466c.269-.142.597-.212.986-.212.6 0 1.07.191 1.41.572.346.375.519.901.519 1.58v3.529h-1.378v-3.445c0-.339-.085-.586-.254-.742a.823.823 0 0 0-.605-.243c-.134 0-.261.021-.381.063a1.947 1.947 0 0 0-.604.35c-.071.064-.128.12-.17.17v3.847H59.94zM70.97 72.17c0 .36-.06.675-.18.943a1.712 1.712 0 0 1-.488.679 1.886 1.886 0 0 1-.752.403c-.29.091-.608.137-.954.137-.707 0-1.269-.159-1.686-.477s-.625-.763-.625-1.335v-.043h1.378v.032c0 .064.014.127.042.191a.593.593 0 0 0 .159.191.868.868 0 0 0 .276.138c.12.035.268.053.445.053.36 0 .618-.085.774-.255.155-.169.233-.388.233-.657v-.636a2.796 2.796 0 0 1-.223.17 2.084 2.084 0 0 1-.731.296 2.307 2.307 0 0 1-.519.053c-.269 0-.523-.038-.764-.116a1.823 1.823 0 0 1-.636-.382 1.856 1.856 0 0 1-.424-.636 2.48 2.48 0 0 1-.148-.901v-1.155c0-.346.049-.647.148-.901.106-.255.248-.467.424-.636.184-.17.396-.293.636-.371.241-.085.495-.127.764-.127.402 0 .731.067.985.201.255.134.477.293.668.477l.403-.551h.795zm-1.378-3.509a2.83 2.83 0 0 0-.498-.392 1.217 1.217 0 0 0-.689-.191.86.86 0 0 0-.318.064.774.774 0 0 0-.286.17.922.922 0 0 0-.202.275.904.904 0 0 0-.074.382v.943c0 .149.025.279.074.392.057.106.124.198.202.276.084.071.18.127.286.17a1.262 1.262 0 0 0 1.007-.128c.191-.127.357-.261.498-.402zM72.62 66.96h.795l.403.551c.134-.155.314-.307.54-.456.234-.148.534-.222.901-.222h.287v1.325h-.287c-.296 0-.544.039-.742.116-.19.078-.364.209-.519.393v3.847H72.62zM78.06 72.64c-.247 0-.484-.035-.71-.106s-.424-.173-.594-.307a1.677 1.677 0 0 1-.413-.52 1.64 1.64 0 0 1-.149-.721c0-.572.184-1.014.552-1.325.374-.318.939-.477 1.696-.477h1.144v-.349c0-.241-.07-.424-.212-.552-.141-.134-.367-.201-.678-.201-.318 0-.548.06-.689.18a.586.586 0 0 0-.201.456h-1.347c0-.276.043-.526.128-.753.091-.233.229-.431.413-.593.191-.17.424-.301.7-.392.282-.099.614-.149.996-.149s.714.05.996.149c.283.091.52.222.711.392.19.169.332.371.424.604.091.233.137.488.137.763v3.774h-.795l-.402-.541a3.296 3.296 0 0 1-.7.477c-.254.127-.59.191-1.007.191zm.286-1.251c.269 0 .502-.042.7-.127.198-.092.378-.23.54-.413v-.615h-1.144c-.184 0-.333.021-.446.063a.74.74 0 0 0-.265.138.418.418 0 0 0-.127.191.58.58 0 0 0-.032.18c0 .389.258.583.774.583zM84.78 72.51c-.41 0-.749-.06-1.018-.18a1.653 1.653 0 0 1-.625-.477 1.75 1.75 0 0 1-.307-.668 3.574 3.574 0 0 1-.085-.784v-2.248h-.816v-1.197h.816V65.8h1.378v1.156h1.261v1.197h-1.261v2.248c0 .36.07.604.212.731.148.12.346.18.593.18h.456v1.198zM91.34 72.51h-.795l-.403-.541a3.207 3.207 0 0 1-.657.456c-.261.142-.583.212-.965.212-.6 0-1.07-.187-1.409-.562-.333-.374-.499-.897-.499-1.568v-3.551h1.378v3.466c0 .339.082.586.244.742a.852.852 0 0 0 .594.222c.134 0 .258-.021.371-.063.12-.043.229-.092.328-.149.099-.063.184-.127.255-.19.078-.064.138-.121.18-.17v-3.858h1.378zM93 65.04h1.378v7.473H93zM97.52 72.64c-.247 0-.484-.035-.71-.106s-.424-.173-.594-.307a1.677 1.677 0 0 1-.413-.52 1.64 1.64 0 0 1-.149-.721c0-.572.184-1.014.552-1.325.374-.318.939-.477 1.696-.477h1.144v-.349c0-.241-.07-.424-.212-.552-.141-.134-.367-.201-.678-.201-.318 0-.548.06-.689.18a.586.586 0 0 0-.201.456h-1.347c0-.276.043-.526.128-.753.091-.233.229-.431.413-.593.191-.17.424-.301.7-.392.282-.099.614-.149.996-.149s.714.05.996.149c.283.091.52.222.711.392.19.169.332.371.424.604.091.233.137.488.137.763v3.774h-.795l-.402-.541a3.296 3.296 0 0 1-.7.477c-.254.127-.59.191-1.007.191zm.286-1.251c.269 0 .502-.042.7-.127.198-.092.378-.23.54-.413v-.615h-1.144c-.184 0-.333.021-.446.063a.74.74 0 0 0-.265.138.418.418 0 0 0-.127.191.58.58 0 0 0-.032.18c0 .389.258.583.774.583zM104.24 72.51c-.41 0-.749-.06-1.018-.18a1.653 1.653 0 0 1-.625-.477 1.75 1.75 0 0 1-.307-.668 3.574 3.574 0 0 1-.085-.784v-2.248h-.816v-1.197h.816V65.8h1.378v1.156h1.261v1.197h-1.261v2.248c0 .36.07.604.212.731.148.12.346.18.593.18h.456v1.198zM106.13 66.96h1.378v5.554h-1.378zm0-1.919h1.378v1.166h-1.378zM111.33 71.39c.346 0 .604-.085.774-.254a.841.841 0 0 0 .254-.615v-1.569a.841.841 0 0 0-.254-.615c-.17-.169-.428-.254-.774-.254-.36 0-.625.088-.795.265a.84.84 0 0 0-.244.604v1.569a.88.88 0 0 0 .244.615c.17.169.435.254.795.254zm0 1.251c-.403 0-.756-.053-1.06-.159s-.558-.251-.763-.435a1.771 1.771 0 0 1-.445-.646 2.236 2.236 0 0 1-.149-.817v-1.696c0-.289.05-.558.149-.805.099-.255.247-.474.445-.657.205-.184.459-.329.763-.435s.657-.159 1.06-.159.753.053 1.049.159c.304.106.555.251.753.435.205.183.357.402.456.657.099.247.148.516.148.805v1.696c0 .29-.049.562-.148.817a1.718 1.718 0 0 1-.456.646 2.11 2.11 0 0 1-.753.435 3.116 3.116 0 0 1-1.049.159zM115.15 66.96h.795l.403.551a3.01 3.01 0 0 1 .657-.466c.269-.142.597-.212.986-.212.6 0 1.07.191 1.41.572.346.375.519.901.519 1.58v3.529h-1.378v-3.445c0-.339-.085-.586-.254-.742a.823.823 0 0 0-.605-.243c-.134 0-.261.021-.381.063a1.947 1.947 0 0 0-.604.35c-.071.064-.128.12-.17.17v3.847h-1.378zM123.7 72.64c-.367 0-.703-.046-1.007-.138a2.47 2.47 0 0 1-.774-.413 1.966 1.966 0 0 1-.519-.636 2.077 2.077 0 0 1-.191-.848h1.367a.8.8 0 0 0 .393.583c.226.134.526.201.901.201.247 0 .445-.042.593-.127.149-.085.223-.198.223-.339 0-.198-.124-.325-.371-.382l-1.537-.392a3.704 3.704 0 0 1-.53-.17 2.214 2.214 0 0 1-.467-.286c-.134-.12-.243-.268-.328-.445s-.127-.389-.127-.636c0-.551.197-.986.593-1.304s.951-.477 1.664-.477c.714 0 1.276.166 1.686.498.417.325.636.795.657 1.41h-1.378a.567.567 0 0 0-.307-.487c-.184-.113-.439-.17-.764-.17-.303 0-.515.046-.636.138-.12.092-.18.194-.18.307 0 .106.039.191.117.255.085.056.205.102.36.137l1.58.393c.183.042.353.102.508.18.163.078.301.176.414.297.12.12.212.265.275.434.071.163.106.361.106.594 0 .282-.056.537-.169.763a1.518 1.518 0 0 1-.467.572 2.262 2.262 0 0 1-.742.361 3.265 3.265 0 0 1-.943.127zM127.6 65.09h1.378v5.088H127.6zm0 6.042h1.378v1.378H127.6z"/>
   </g>
   <g fill="#fafafa">
    <path id="path133" d="M49.75 71.81c-.947 0-1.671-.233-2.173-.7-.495-.466-.742-1.123-.742-1.971v-2.396c0-.848.247-1.505.742-1.971.502-.467 1.226-.7 2.173-.7.367 0 .717.049 1.049.148.333.099.626.255.88.467.255.205.456.473.604.805.149.325.223.718.223 1.177v.106h-1.505v-.106c0-.219-.039-.406-.117-.562a.905.905 0 0 0-.297-.371 1.196 1.196 0 0 0-.434-.212 1.721 1.721 0 0 0-.498-.074c-.446 0-.778.106-.997.318-.212.212-.318.502-.318.869v2.608c0 .367.106.657.318.869.219.212.551.318.997.318.169 0 .335-.021.498-.064a1.28 1.28 0 0 0 .434-.201.981.981 0 0 0 .297-.382c.078-.155.117-.346.117-.572v-.106h1.505v.106c0 .459-.074.855-.223 1.187a2.232 2.232 0 0 1-.604.806 2.534 2.534 0 0 1-.88.456 3.653 3.653 0 0 1-1.049.148zM56.12 70.53c.346 0 .604-.085.774-.254a.841.841 0 0 0 .254-.615v-1.569a.841.841 0 0 0-.254-.615c-.17-.169-.428-.254-.774-.254-.36 0-.625.088-.795.265a.84.84 0 0 0-.244.604v1.569a.88.88 0 0 0 .244.615c.17.169.435.254.795.254zm0 1.251c-.403 0-.756-.053-1.06-.159s-.558-.251-.763-.435a1.771 1.771 0 0 1-.445-.646 2.236 2.236 0 0 1-.149-.817v-1.696c0-.289.05-.558.149-.805.099-.255.247-.474.445-.657.205-.184.459-.329.763-.435s.657-.159 1.06-.159.753.053 1.049.159c.304.106.555.251.753.435.205.183.357.402.456.657.099.247.148.516.148.805v1.696c0 .29-.049.562-.148.817a1.718 1.718 0 0 1-.456.646 2.11 2.11 0 0 1-.753.435 3.116 3.116 0 0 1-1.049.159zM59.94 66.1h.795l.403.551a3.01 3.01 0 0 1 .657-.466c.269-.142.597-.212.986-.212.6 0 1.07.191 1.41.572.346.375.519.901.519 1.58v3.529h-1.378v-3.445c0-.339-.085-.586-.254-.742a.823.823 0 0 0-.605-.243c-.134 0-.261.021-.381.063a1.947 1.947 0 0 0-.604.35c-.071.064-.128.12-.17.17v3.847H59.94zM70.97 71.31c0 .36-.06.675-.18.943a1.712 1.712 0 0 1-.488.679 1.886 1.886 0 0 1-.752.403c-.29.091-.608.137-.954.137-.707 0-1.269-.159-1.686-.477s-.625-.763-.625-1.335v-.043h1.378v.032c0 .064.014.127.042.191a.593.593 0 0 0 .159.191.868.868 0 0 0 .276.138c.12.035.268.053.445.053.36 0 .618-.085.774-.255.155-.169.233-.388.233-.657v-.636a2.796 2.796 0 0 1-.223.17 2.084 2.084 0 0 1-.731.296 2.307 2.307 0 0 1-.519.053c-.269 0-.523-.038-.764-.116a1.823 1.823 0 0 1-.636-.382 1.856 1.856 0 0 1-.424-.636 2.48 2.48 0 0 1-.148-.901v-1.155c0-.346.049-.647.148-.901.106-.255.248-.467.424-.636.184-.17.396-.293.636-.371.241-.085.495-.127.764-.127.402 0 .731.067.985.201.255.134.477.293.668.477l.403-.551h.795zm-1.378-3.509a2.83 2.83 0 0 0-.498-.392 1.217 1.217 0 0 0-.689-.191.86.86 0 0 0-.318.064.774.774 0 0 0-.286.17.922.922 0 0 0-.202.275.904.904 0 0 0-.074.382v.943c0 .149.025.279.074.392.057.106.124.198.202.276.084.071.18.127.286.17a1.262 1.262 0 0 0 1.007-.128c.191-.127.357-.261.498-.402zM72.62 66.1h.795l.403.551c.134-.155.314-.307.54-.456.234-.148.534-.222.901-.222h.287v1.325h-.287c-.296 0-.544.039-.742.116-.19.078-.364.209-.519.393v3.847H72.62zM78.06 71.78c-.247 0-.484-.035-.71-.106s-.424-.173-.594-.307a1.677 1.677 0 0 1-.413-.52 1.64 1.64 0 0 1-.149-.721c0-.572.184-1.014.552-1.325.374-.318.939-.477 1.696-.477h1.144v-.349c0-.241-.07-.424-.212-.552-.141-.134-.367-.201-.678-.201-.318 0-.548.06-.689.18a.586.586 0 0 0-.201.456h-1.347c0-.276.043-.526.128-.753.091-.233.229-.431.413-.593.191-.17.424-.301.7-.392.282-.099.614-.149.996-.149s.714.05.996.149c.283.091.52.222.711.392.19.169.332.371.424.604.091.233.137.488.137.763v3.774h-.795l-.402-.541a3.296 3.296 0 0 1-.7.477c-.254.127-.59.191-1.007.191zm.286-1.251c.269 0 .502-.042.7-.127.198-.092.378-.23.54-.413v-.615h-1.144c-.184 0-.333.021-.446.063a.74.74 0 0 0-.265.138.418.418 0 0 0-.127.191.58.58 0 0 0-.032.18c0 .389.258.583.774.583zM84.78 71.65c-.41 0-.749-.06-1.018-.18a1.653 1.653 0 0 1-.625-.477 1.75 1.75 0 0 1-.307-.668 3.574 3.574 0 0 1-.085-.784v-2.248h-.816v-1.197h.816V64.94h1.378v1.156h1.261v1.197h-1.261v2.248c0 .36.07.604.212.731.148.12.346.18.593.18h.456v1.198zM91.34 71.65h-.795l-.403-.541a3.207 3.207 0 0 1-.657.456c-.261.142-.583.212-.965.212-.6 0-1.07-.187-1.409-.562-.333-.374-.499-.897-.499-1.568v-3.551h1.378v3.466c0 .339.082.586.244.742a.852.852 0 0 0 .594.222c.134 0 .258-.021.371-.063.12-.043.229-.092.328-.149.099-.063.184-.127.255-.19.078-.064.138-.121.18-.17v-3.858h1.378zM93 64.18h1.378v7.473H93zM97.52 71.78c-.247 0-.484-.035-.71-.106s-.424-.173-.594-.307a1.677 1.677 0 0 1-.413-.52 1.64 1.64 0 0 1-.149-.721c0-.572.184-1.014.552-1.325.374-.318.939-.477 1.696-.477h1.144v-.349c0-.241-.07-.424-.212-.552-.141-.134-.367-.201-.678-.201-.318 0-.548.06-.689.18a.586.586 0 0 0-.201.456h-1.347c0-.276.043-.526.128-.753.091-.233.229-.431.413-.593.191-.17.424-.301.7-.392.282-.099.614-.149.996-.149s.714.05.996.149c.283.091.52.222.711.392.19.169.332.371.424.604.091.233.137.488.137.763v3.774h-.795l-.402-.541a3.296 3.296 0 0 1-.7.477c-.254.127-.59.191-1.007.191zm.286-1.251c.269 0 .502-.042.7-.127.198-.092.378-.23.54-.413v-.615h-1.144c-.184 0-.333.021-.446.063a.74.74 0 0 0-.265.138.418.418 0 0 0-.127.191.58.58 0 0 0-.032.18c0 .389.258.583.774.583zM104.24 71.65c-.41 0-.749-.06-1.018-.18a1.653 1.653 0 0 1-.625-.477 1.75 1.75 0 0 1-.307-.668 3.574 3.574 0 0 1-.085-.784v-2.248h-.816v-1.197h.816V64.94h1.378v1.156h1.261v1.197h-1.261v2.248c0 .36.07.604.212.731.148.12.346.18.593.18h.456v1.198zM106.13 66.1h1.378v5.554h-1.378zm0-1.919h1.378v1.166h-1.378zM111.33 70.53c.346 0 .604-.085.774-.254a.841.841 0 0 0 .254-.615v-1.569a.841.841 0 0 0-.254-.615c-.17-.169-.428-.254-.774-.254-.36 0-.625.088-.795.265a.84.84 0 0 0-.244.604v1.569a.88.88 0 0 0 .244.615c.17.169.435.254.795.254zm0 1.251c-.403 0-.756-.053-1.06-.159s-.558-.251-.763-.435a1.771 1.771 0 0 1-.445-.646 2.236 2.236 0 0 1-.149-.817v-1.696c0-.289.05-.558.149-.805.099-.255.247-.474.445-.657.205-.184.459-.329.763-.435s.657-.159 1.06-.159.753.053 1.049.159c.304.106.555.251.753.435.205.183.357.402.456.657.099.247.148.516.148.805v1.696c0 .29-.049.562-.148.817a1.718 1.718 0 0 1-.456.646 2.11 2.11 0 0 1-.753.435 3.116 3.116 0 0 1-1.049.159zM115.15 66.1h.795l.403.551a3.01 3.01 0 0 1 .657-.466c.269-.142.597-.212.986-.212.6 0 1.07.191 1.41.572.346.375.519.901.519 1.58v3.529h-1.378v-3.445c0-.339-.085-.586-.254-.742a.823.823 0 0 0-.605-.243c-.134 0-.261.021-.381.063a1.947 1.947 0 0 0-.604.35c-.071.064-.128.12-.17.17v3.847h-1.378zM123.7 71.78c-.367 0-.703-.046-1.007-.138a2.47 2.47 0 0 1-.774-.413 1.966 1.966 0 0 1-.519-.636 2.077 2.077 0 0 1-.191-.848h1.367a.8.8 0 0 0 .393.583c.226.134.526.201.901.201.247 0 .445-.042.593-.127.149-.085.223-.198.223-.339 0-.198-.124-.325-.371-.382l-1.537-.392a3.704 3.704 0 0 1-.53-.17 2.214 2.214 0 0 1-.467-.286c-.134-.12-.243-.268-.328-.445s-.127-.389-.127-.636c0-.551.197-.986.593-1.304s.951-.477 1.664-.477c.714 0 1.276.166 1.686.498.417.325.636.795.657 1.41h-1.378a.567.567 0 0 0-.307-.487c-.184-.113-.439-.17-.764-.17-.303 0-.515.046-.636.138-.12.092-.18.194-.18.307 0 .106.039.191.117.255.085.056.205.102.36.137l1.58.393c.183.042.353.102.508.18.163.078.301.176.414.297.12.12.212.265.275.434.071.163.106.361.106.594 0 .282-.056.537-.169.763a1.518 1.518 0 0 1-.467.572 2.262 2.262 0 0 1-.742.361 3.265 3.265 0 0 1-.943.127zM127.6 64.23h1.378v5.088H127.6zm0 6.042h1.378v1.378H127.6z"/>
   </g>
  </g>
 </g>
</svg>
